<svg width="32" height="32" viewBox="0 0 32 32" fill="none" xmlns="http://www.w3.org/2000/svg">
  <defs>
    <linearGradient id="faviconGradient" x1="0%" y1="0%" x2="100%" y2="100%">
      <stop offset="0%" style="stop-color:#E879F9"/>
      <stop offset="100%" style="stop-color:#A78BFA"/>
    </linearGradient>
  </defs>
  <rect width="32" height="32" rx="8" fill="url(#faviconGradient)"/>
  <path d="M7 24V8h2l6 12V8h2v16h-2l-6-12v12H7z" fill="white"/>
  <path d="M19 16c0-4.418 3.026-8 6.76-8 1.82 0 3.38.686 4.42 1.829l-1.456 1.829c-.728-.8-1.716-1.372-2.964-1.372-2.6 0-4.42 2.4-4.42 5.714s1.82 5.714 4.42 5.714c1.248 0 2.236-.571 2.964-1.371l1.456 1.828C29.14 23.314 27.58 24 25.76 24 22.026 24 19 20.418 19 16z" fill="white"/>
</svg>
