<svg width="80" height="80" viewBox="0 0 80 80" fill="none" xmlns="http://www.w3.org/2000/svg">
  <defs>
    <linearGradient id="ncGradient" x1="0%" y1="0%" x2="100%" y2="100%">
      <stop offset="0%" style="stop-color:#E879F9"/>
      <stop offset="50%" style="stop-color:#C084FC"/>
      <stop offset="100%" style="stop-color:#A78BFA"/>
    </linearGradient>
    <linearGradient id="ncGradientHover" x1="0%" y1="0%" x2="100%" y2="100%">
      <stop offset="0%" style="stop-color:#F0ABFC"/>
      <stop offset="50%" style="stop-color:#D8B4FE"/>
      <stop offset="100%" style="stop-color:#C4B5FD"/>
    </linearGradient>
  </defs>
  <!-- Background circle with soft shadow effect -->
  <circle cx="40" cy="40" r="38" fill="url(#ncGradient)" opacity="0.1"/>
  <circle cx="40" cy="40" r="36" fill="white" stroke="url(#ncGradient)" stroke-width="2"/>
  
  <!-- N letter - elegant flowing design -->
  <path d="M22 54V26h4l12 20V26h4v28h-4L26 34v20h-4z" fill="url(#ncGradient)"/>
  
  <!-- C letter - elegant flowing design -->
  <path d="M48 40c0-7.732 5.82-14 13-14 3.5 0 6.5 1.2 8.5 3.2l-2.8 3.2c-1.4-1.4-3.3-2.4-5.7-2.4-5 0-8.5 4.2-8.5 10s3.5 10 8.5 10c2.4 0 4.3-1 5.7-2.4l2.8 3.2c-2 2-5 3.2-8.5 3.2-7.18 0-13-6.268-13-14z" fill="url(#ncGradient)"/>
</svg>
